<svg version="1.1" id="Layer_1" xmlns="http://www.w3.org/2000/svg" xmlns:xlink="http://www.w3.org/1999/xlink" x="0px" y="0px"
	 width="100%" viewBox="0 0 512 512" enable-background="new 0 0 512 512" xml:space="preserve">
<path fill="#6D7075" opacity="1.000000" stroke="none" 
	d="
M289.000000,513.000000 
	C267.979095,513.000000 246.958206,513.000000 225.568695,512.589294 
	C220.318420,511.136627 215.475754,509.833801 210.548462,509.097137 
	C187.292343,505.620270 165.398956,497.752960 144.404495,487.607147 
	C128.601944,479.970367 113.869476,470.405487 99.880783,459.622070 
	C81.540138,445.483826 65.444016,429.155975 51.591927,410.793823 
	C35.615372,389.615540 23.229746,366.310211 14.571545,341.133667 
	C9.014678,324.975250 4.948012,308.471375 2.915635,291.479431 
	C2.809170,290.589325 1.662436,289.823608 1.000000,289.000000 
	C1.000000,267.979095 1.000000,246.958206 1.411384,225.567444 
	C2.204095,224.523682 2.783131,223.892014 2.937482,223.169617 
	C5.877311,209.410522 7.918611,195.393692 11.840285,181.923538 
	C20.560675,151.970718 34.984638,124.823341 54.206604,100.158974 
	C69.878647,80.049652 87.952682,62.576626 108.698463,47.797638 
	C124.416382,36.600422 141.164749,27.300211 158.990570,19.917702 
	C179.732376,11.327543 201.153214,5.342356 223.513153,2.858766 
	C224.070709,2.796838 224.507095,1.644029 225.000000,0.999997 
	C246.020889,1.000000 267.041779,1.000000 288.432495,1.411381 
	C293.077698,2.561756 297.373566,3.199326 301.625275,4.056021 
	C331.715912,10.119116 360.234833,20.152117 386.851501,35.818066 
	C416.571350,53.310463 441.658051,75.917412 462.390930,103.149788 
	C478.239685,123.966927 490.493896,147.014923 499.067993,171.886337 
	C504.806671,188.532928 509.123901,205.491348 511.098602,223.020554 
	C511.179932,223.742599 512.341675,224.342941 513.000000,225.000000 
	C513.000000,246.020889 513.000000,267.041779 512.589294,288.431335 
	C511.791138,289.639343 511.184143,290.445679 511.052246,291.323425 
	C510.247284,296.680725 509.907135,302.132050 508.756348,307.409058 
	C503.284546,332.501099 494.882111,356.499451 482.523499,379.138916 
	C472.714691,397.107513 461.370850,414.021027 447.365326,428.813232 
	C436.020020,440.795746 423.883606,452.282990 410.818604,462.325317 
	C390.050690,478.288544 366.927887,490.416016 342.084290,499.071289 
	C325.464722,504.861389 308.498962,509.083801 290.993835,511.098267 
	C290.265900,511.182037 289.661774,512.341614 289.000000,513.000000 
M369.999268,218.499207 
	C380.248718,208.249954 390.819733,198.298309 400.658295,187.668732 
	C410.739105,176.777435 409.026276,161.505493 398.928894,152.779984 
	C386.816498,142.313217 373.209778,144.196808 362.785675,154.652313 
	C315.735260,201.844589 268.574951,248.927399 221.447952,296.043335 
	C220.074310,297.416626 218.630234,298.719421 217.150696,300.119751 
	C203.277924,287.441040 189.689301,275.066437 176.152679,262.635193 
	C166.873352,254.113617 157.788467,245.375137 148.351044,237.034119 
	C145.598526,234.601395 142.124390,232.664383 138.650879,231.426773 
	C126.989609,227.272003 116.884315,232.858322 111.467979,240.246857 
	C104.936424,249.156738 105.232002,261.340393 112.244980,269.577637 
	C116.920601,275.069458 122.213257,280.080811 127.550285,284.956329 
	C144.501373,300.441711 161.617706,315.746063 178.639465,331.154358 
	C186.604187,338.364105 194.336411,345.839386 202.465378,352.856781 
	C212.681458,361.675873 226.262741,361.057831 235.883560,351.601013 
	C258.890930,328.985840 281.909241,306.381165 304.808136,283.656403 
	C326.448181,262.180908 347.941498,240.557587 369.999268,218.499207 
z"/>
<path fill="#000000" opacity="1.000000" stroke="none" 
	d="
M1.000000,289.468658 
	C1.662436,289.823608 2.809170,290.589325 2.915635,291.479431 
	C4.948012,308.471375 9.014678,324.975250 14.571545,341.133667 
	C23.229746,366.310211 35.615372,389.615540 51.591927,410.793823 
	C65.444016,429.155975 81.540138,445.483826 99.880783,459.622070 
	C113.869476,470.405487 128.601944,479.970367 144.404495,487.607147 
	C165.398956,497.752960 187.292343,505.620270 210.548462,509.097137 
	C215.475754,509.833801 220.318420,511.136627 225.100037,512.589294 
	C150.406296,513.000000 75.812599,513.000000 1.000000,513.000000 
	C1.000000,438.645905 1.000000,364.291626 1.000000,289.468658 
z"/>
<path fill="#000000" opacity="1.000000" stroke="none" 
	d="
M289.468658,513.000000 
	C289.661774,512.341614 290.265900,511.182037 290.993835,511.098267 
	C308.498962,509.083801 325.464722,504.861389 342.084290,499.071289 
	C366.927887,490.416016 390.050690,478.288544 410.818604,462.325317 
	C423.883606,452.282990 436.020020,440.795746 447.365326,428.813232 
	C461.370850,414.021027 472.714691,397.107513 482.523499,379.138916 
	C494.882111,356.499451 503.284546,332.501099 508.756348,307.409058 
	C509.907135,302.132050 510.247284,296.680725 511.052246,291.323425 
	C511.184143,290.445679 511.791138,289.639343 512.589294,288.900024 
	C513.000000,363.593719 513.000000,438.187408 513.000000,513.000000 
	C438.645905,513.000000 364.291626,513.000000 289.468658,513.000000 
z"/>
<path fill="#000000" opacity="1.000000" stroke="none" 
	d="
M224.531342,0.999997 
	C224.507095,1.644029 224.070709,2.796838 223.513153,2.858766 
	C201.153214,5.342356 179.732376,11.327543 158.990570,19.917702 
	C141.164749,27.300211 124.416382,36.600422 108.698463,47.797638 
	C87.952682,62.576626 69.878647,80.049652 54.206604,100.158974 
	C34.984638,124.823341 20.560675,151.970718 11.840285,181.923538 
	C7.918611,195.393692 5.877311,209.410522 2.937482,223.169617 
	C2.783131,223.892014 2.204095,224.523682 1.411384,225.098785 
	C1.000000,150.406296 1.000000,75.812576 1.000000,1.000000 
	C75.354088,1.000000 149.708389,1.000000 224.531342,0.999997 
z"/>
<path fill="#000000" opacity="1.000000" stroke="none" 
	d="
M513.000000,224.531342 
	C512.341675,224.342941 511.179932,223.742599 511.098602,223.020554 
	C509.123901,205.491348 504.806671,188.532928 499.067993,171.886337 
	C490.493896,147.014923 478.239685,123.966927 462.390930,103.149788 
	C441.658051,75.917412 416.571350,53.310463 386.851501,35.818066 
	C360.234833,20.152117 331.715912,10.119116 301.625275,4.056021 
	C297.373566,3.199326 293.077698,2.561756 288.901123,1.411381 
	C363.593719,1.000000 438.187408,1.000000 513.000000,1.000000 
	C513.000000,75.354088 513.000000,149.708389 513.000000,224.531342 
z"/>
<path fill="#000000" opacity="1.000000" stroke="none" 
	d="
M369.749329,218.749252 
	C347.941498,240.557587 326.448181,262.180908 304.808136,283.656403 
	C281.909241,306.381165 258.890930,328.985840 235.883560,351.601013 
	C226.262741,361.057831 212.681458,361.675873 202.465378,352.856781 
	C194.336411,345.839386 186.604187,338.364105 178.639465,331.154358 
	C161.617706,315.746063 144.501373,300.441711 127.550285,284.956329 
	C122.213257,280.080811 116.920601,275.069458 112.244980,269.577637 
	C105.232002,261.340393 104.936424,249.156738 111.467979,240.246857 
	C116.884315,232.858322 126.989609,227.272003 138.650879,231.426773 
	C142.124390,232.664383 145.598526,234.601395 148.351044,237.034119 
	C157.788467,245.375137 166.873352,254.113617 176.152679,262.635193 
	C189.689301,275.066437 203.277924,287.441040 217.150696,300.119751 
	C218.630234,298.719421 220.074310,297.416626 221.447952,296.043335 
	C268.574951,248.927399 315.735260,201.844589 362.785675,154.652313 
	C373.209778,144.196808 386.816498,142.313217 398.928894,152.779984 
	C409.026276,161.505493 410.739105,176.777435 400.658295,187.668732 
	C390.819733,198.298309 380.248718,208.249954 369.749329,218.749252 
z"/>
</svg>