<svg version="1.1" id="Layer_1" xmlns="http://www.w3.org/2000/svg" xmlns:xlink="http://www.w3.org/1999/xlink" x="0px" y="0px"
	 width="100%" viewBox="0 0 512 512" enable-background="new 0 0 512 512" xml:space="preserve">
<path fill="#4DC591" opacity="1.000000" stroke="none" 
	d="
M225.000000,1.000000 
	C246.020889,1.000000 267.041779,1.000000 288.305847,1.383696 
	C293.904999,2.838990 299.241821,4.020066 304.620361,4.963230 
	C327.877167,9.041461 350.033722,16.565645 371.058990,27.137352 
	C390.656769,36.991322 408.799469,49.074680 425.378571,63.645149 
	C439.101379,75.705368 451.682434,88.808434 462.530151,103.328339 
	C473.422028,117.907288 482.676758,133.619263 490.250793,150.351395 
	C500.752380,173.550903 507.981689,197.541718 511.080841,222.805557 
	C511.178741,223.603500 512.336426,224.271454 513.000000,225.000000 
	C513.000000,246.020889 513.000000,267.041779 512.610413,288.315033 
	C511.817322,289.410767 511.230194,290.214417 511.037750,291.103485 
	C508.046967,304.918701 505.675568,318.897583 502.014343,332.530701 
	C497.266113,350.211365 489.689758,366.846283 480.644684,382.775421 
	C470.347870,400.908966 458.164673,417.669250 443.730072,432.735046 
	C432.090759,444.883362 419.556610,455.967133 405.851532,465.836853 
	C390.278931,477.051422 373.729340,486.491760 356.104584,493.789215 
	C335.149536,502.465607 313.442810,508.885132 290.692444,511.097168 
	C290.072479,511.157440 289.561707,512.340515 289.000000,513.000000 
	C267.979095,513.000000 246.958206,513.000000 225.695145,512.617188 
	C222.348465,511.493622 219.280853,510.477295 216.133591,510.055603 
	C190.875153,506.671692 166.988342,498.701721 144.261612,487.526733 
	C124.127991,477.626831 105.507523,465.304626 88.613647,450.308807 
	C74.231331,437.542389 61.273285,423.601196 49.791405,408.239929 
	C37.836975,392.246490 27.946774,374.947144 20.372227,356.568481 
	C11.679137,335.475800 4.925913,313.678894 2.902371,290.715424 
	C2.847483,290.092560 1.659562,289.569580 1.000000,289.000000 
	C1.000000,267.979095 1.000000,246.958206 1.390440,225.683960 
	C2.851389,219.908096 3.979797,214.396072 4.982266,208.861252 
	C9.066146,186.313263 16.274963,164.738312 26.438684,144.283615 
	C34.274799,128.513275 43.658993,113.649872 54.534630,99.635468 
	C68.716354,81.360809 85.062546,65.362335 103.362740,51.505371 
	C118.409935,40.111591 134.705002,30.543596 152.112808,22.871117 
	C174.778702,12.881130 198.183105,5.892414 222.786163,2.919424 
	C223.589691,2.822328 224.264954,1.663760 225.000000,1.000000 
M367.999756,220.499680 
	C378.839081,209.656815 389.860046,198.987823 400.460236,187.915970 
	C408.919830,179.079926 409.431427,167.102936 403.568573,158.505234 
	C393.195404,143.293259 375.867584,141.577301 362.985626,154.479584 
	C315.766785,201.773117 268.479126,248.997940 221.283752,296.314819 
	C219.919891,297.682220 219.298599,299.790283 218.474670,301.291351 
	C204.418350,288.566284 191.987610,277.425751 179.687546,266.142731 
	C169.440323,256.742828 159.498566,247.005432 149.130737,237.742996 
	C142.292633,231.633987 134.413513,228.285172 124.869995,230.973129 
	C108.663200,235.537842 100.893654,255.463913 111.941399,269.145020 
	C117.545876,276.085388 124.751610,281.755524 131.377914,287.842682 
	C142.064728,297.659912 152.908051,307.306610 163.617096,317.099884 
	C176.174545,328.583557 188.764633,340.035034 201.142426,351.710480 
	C211.410263,361.395691 225.855927,361.494385 235.951035,351.550873 
	C259.185669,328.665070 282.461700,305.820923 305.613068,282.851166 
	C326.317017,262.309662 346.876526,241.622559 367.999756,220.499680 
z"/>
<path fill="#000000" opacity="1.000000" stroke="none" 
	d="
M513.000000,224.531342 
	C512.336426,224.271454 511.178741,223.603500 511.080841,222.805557 
	C507.981689,197.541718 500.752380,173.550903 490.250793,150.351395 
	C482.676758,133.619263 473.422028,117.907288 462.530151,103.328339 
	C451.682434,88.808434 439.101379,75.705368 425.378571,63.645149 
	C408.799469,49.074680 390.656769,36.991322 371.058990,27.137352 
	C350.033722,16.565645 327.877167,9.041461 304.620361,4.963230 
	C299.241821,4.020066 293.904999,2.838990 288.774475,1.383696 
	C363.593719,1.000000 438.187408,1.000000 513.000000,1.000000 
	C513.000000,75.354088 513.000000,149.708389 513.000000,224.531342 
z"/>
<path fill="#000000" opacity="1.000000" stroke="none" 
	d="
M1.000000,289.468658 
	C1.659562,289.569580 2.847483,290.092560 2.902371,290.715424 
	C4.925913,313.678894 11.679137,335.475800 20.372227,356.568481 
	C27.946774,374.947144 37.836975,392.246490 49.791405,408.239929 
	C61.273285,423.601196 74.231331,437.542389 88.613647,450.308807 
	C105.507523,465.304626 124.127991,477.626831 144.261612,487.526733 
	C166.988342,498.701721 190.875153,506.671692 216.133591,510.055603 
	C219.280853,510.477295 222.348465,511.493622 225.226486,512.617188 
	C150.406296,513.000000 75.812599,513.000000 1.000000,513.000000 
	C1.000000,438.645905 1.000000,364.291626 1.000000,289.468658 
z"/>
<path fill="#000000" opacity="1.000000" stroke="none" 
	d="
M289.468658,513.000000 
	C289.561707,512.340515 290.072479,511.157440 290.692444,511.097168 
	C313.442810,508.885132 335.149536,502.465607 356.104584,493.789215 
	C373.729340,486.491760 390.278931,477.051422 405.851532,465.836853 
	C419.556610,455.967133 432.090759,444.883362 443.730072,432.735046 
	C458.164673,417.669250 470.347870,400.908966 480.644684,382.775421 
	C489.689758,366.846283 497.266113,350.211365 502.014343,332.530701 
	C505.675568,318.897583 508.046967,304.918701 511.037750,291.103485 
	C511.230194,290.214417 511.817322,289.410767 512.610413,288.783691 
	C513.000000,363.593719 513.000000,438.187408 513.000000,513.000000 
	C438.645905,513.000000 364.291626,513.000000 289.468658,513.000000 
z"/>
<path fill="#000000" opacity="1.000000" stroke="none" 
	d="
M224.531342,1.000000 
	C224.264954,1.663760 223.589691,2.822328 222.786163,2.919424 
	C198.183105,5.892414 174.778702,12.881130 152.112808,22.871117 
	C134.705002,30.543596 118.409935,40.111591 103.362740,51.505371 
	C85.062546,65.362335 68.716354,81.360809 54.534630,99.635468 
	C43.658993,113.649872 34.274799,128.513275 26.438684,144.283615 
	C16.274963,164.738312 9.066146,186.313263 4.982266,208.861252 
	C3.979797,214.396072 2.851389,219.908096 1.390440,225.215302 
	C1.000000,150.406296 1.000000,75.812576 1.000000,1.000000 
	C75.354088,1.000000 149.708389,1.000000 224.531342,1.000000 
z"/>
<path fill="#000000" opacity="1.000000" stroke="none" 
	d="
M367.749756,220.749695 
	C346.876526,241.622559 326.317017,262.309662 305.613068,282.851166 
	C282.461700,305.820923 259.185669,328.665070 235.951035,351.550873 
	C225.855927,361.494385 211.410263,361.395691 201.142426,351.710480 
	C188.764633,340.035034 176.174545,328.583557 163.617096,317.099884 
	C152.908051,307.306610 142.064728,297.659912 131.377914,287.842682 
	C124.751610,281.755524 117.545876,276.085388 111.941399,269.145020 
	C100.893654,255.463913 108.663200,235.537842 124.869995,230.973129 
	C134.413513,228.285172 142.292633,231.633987 149.130737,237.742996 
	C159.498566,247.005432 169.440323,256.742828 179.687546,266.142731 
	C191.987610,277.425751 204.418350,288.566284 218.474670,301.291351 
	C219.298599,299.790283 219.919891,297.682220 221.283752,296.314819 
	C268.479126,248.997940 315.766785,201.773117 362.985626,154.479584 
	C375.867584,141.577301 393.195404,143.293259 403.568573,158.505234 
	C409.431427,167.102936 408.919830,179.079926 400.460236,187.915970 
	C389.860046,198.987823 378.839081,209.656815 367.749756,220.749695 
z"/>
</svg>