<?xml version="1.0" standalone="no"?>
<!DOCTYPE svg PUBLIC "-//W3C//DTD SVG 20010904//EN"
 "http://www.w3.org/TR/2001/REC-SVG-20010904/DTD/svg10.dtd">
<svg version="1.0" xmlns="http://www.w3.org/2000/svg"
 width="512.000000pt" height="512.000000pt" viewBox="0 0 512.000000 512.000000"
 preserveAspectRatio="xMidYMid meet">

<g transform="translate(0.000000,512.000000) scale(0.100000,-0.100000)"
fill="#000000" stroke="none">
<path d="M2390 4834 c-190 -40 -379 -168 -491 -331 -55 -79 -99 -187 -99 -240
0 -133 149 -205 254 -122 15 12 45 59 67 105 89 182 246 284 439 284 98 0 188
-27 268 -80 75 -50 122 -107 175 -212 50 -98 86 -128 154 -128 93 0 153 55
161 145 4 43 -1 64 -31 128 -109 235 -315 401 -563 452 -90 18 -247 18 -334
-1z"/>
<path d="M690 3989 c-14 -6 -36 -20 -48 -32 -78 -72 -68 -185 21 -251 l28 -21
1869 0 1869 0 28 21 c98 73 98 195 0 268 l-28 21 -1857 2 c-1220 1 -1866 -2
-1882 -8z"/>
<path d="M1059 3460 c-46 -13 -78 -41 -99 -84 l-20 -43 60 -899 c77 -1149 89
-1263 151 -1445 99 -290 301 -439 664 -490 117 -16 1128 -24 1340 -10 373 25
564 103 701 285 86 113 130 231 163 427 30 178 35 240 101 1232 66 987 66 933
4 991 -77 71 -211 44 -250 -50 -10 -23 -33 -313 -74 -931 -71 -1060 -84 -1190
-127 -1328 -40 -128 -116 -216 -219 -255 -137 -51 -200 -55 -894 -55 -694 0
-757 4 -894 55 -103 39 -178 126 -219 255 -44 136 -55 247 -127 1328 -41 614
-64 908 -74 930 -17 41 -45 65 -93 83 -43 15 -57 16 -94 4z"/>
</g>
</svg>
